<svg xmlns="http://www.w3.org/2000/svg" viewBox="0 0 739.3 297.1"><path fill="#007dc5" d="M378 135h12v-23h9v-9h-31v9h9zm31 0 7-19 6 19h13l-13-32h-13l-13 32zm32 0h13v-23h9v-9h-31v9h9zm31 0 7-19 6 19h13l-12-32h-14l-12 32zm124 23a104 104 0 0 0 5 11l9 14h6v-32h-5v25a89 89 0 0 0-5-11l-9-14h-6v32h5zm-30 16h11l3 9h6l-11-32h-7l-10 32h6zm4-12 2-6 1 6 3 8h-8zm-99 17-8-2-2 5 9 2c9 0 12-5 12-10 0-4-2-7-8-9-4-2-6-3-6-6 0-2 2-4 5-4l7 2 1-5-8-1c-7 0-11 4-11 9s3 7 9 9c4 2 5 3 5 6 0 2-2 4-5 4m-85-23 6 1 2-5-8-1c-10 0-17 6-17 17 0 9 6 16 16 16l8-2-1-4a17 17 0 0 1-6 1c-7 0-11-5-11-12s4-11 11-11m165 27v-27h9v-5h-25v5h10v27zm117-32-4 8-2 7-3-7-4-8h-7l10 19v13h6v-13l11-19zm-257 0c-9 0-16 7-16 16 0 10 6 17 15 17s16-6 16-17c0-9-6-16-15-16m-1 28c-5 0-9-5-9-12s3-12 9-12 9 6 9 12c0 7-3 12-9 12m229-24 6 2 1-5a19 19 0 0 0-8-1c-10 0-17 6-17 17 0 9 6 16 17 16l8-2-1-4a17 17 0 0 1-7 1c-6 0-11-5-11-12s5-12 12-12m-114-4h-6v32h20v-5h-14zm-12 18v-18h-6v19q0 9-7 9-6 0-6-9v-19h-6v19c0 10 5 14 12 14 8 0 13-4 13-14m-57-19h-5v25a89 89 0 0 0-5-11l-9-14h-7v32h6v-25a104 104 0 0 0 6 11l8 14h6zm19 48h6v33h-6zm-40 18c3-2 6-4 6-8q0-5-3-7c-2-2-6-2-10-2h-9v32h6v-13h3c3 0 5 1 6 5l2 8h6l-2-9q-2-5-5-6m-6-3h-4v-10h4c3 0 6 2 6 5s-3 5-7 5m33 0-3 12-4-12-4-14h-6l10 32h7l11-32h-6zm61 3h12v-4h-12v-9h13v-4h-19v32h20v-5h-14zm-18-13 6 1 1-5-7-1c-10 0-18 6-18 17 1 10 7 16 17 16l8-1-1-5a17 17 0 0 1-6 1c-7 0-11-4-11-11 0-8 4-12 11-12m-123 9c-4-2-6-3-6-5s1-4 5-4l7 1 1-4q-2-2-8-2c-7 0-11 4-11 9s3 8 9 10c4 1 5 3 5 5 0 3-2 5-6 5-3 0-6-1-7-3l-2 5 9 2c8 0 12-4 12-9s-2-8-8-10m19 5h13v-5h-13v-9h13v-4h-18v32h19v-5h-14zm152-5c-4-2-6-3-6-5s1-4 5-4l7 1 1-4q-3-2-8-2c-7 0-11 4-11 9s3 8 9 10c4 1 5 3 5 5 0 3-2 5-6 5-2 0-5-1-7-3l-2 5 9 2c8 0 12-4 12-9s-2-8-8-10"/><linearGradient id="a" x1="76.5" x2="76.5" y1="70.9" y2="119.1" gradientUnits="userSpaceOnUse"><stop offset="0" stop-color="#ffc708"/><stop offset="1" stop-color="#f05731"/></linearGradient><path fill="url(#a)" d="M65 125c0-15 9-24 23-24V78c0-8-5-13-12-13s-11 5-11 13z"/><linearGradient id="b" x1="102.9" x2="90.3" y1="107.9" y2="199.1" gradientUnits="userSpaceOnUse"><stop offset="0" stop-color="#f80000"/><stop offset="1" stop-color="#ee3984"/></linearGradient><path fill="url(#b)" d="M106 233q9 0 16-3c-24 4-34-13-34-32v-78h29c6 0 11-3 11-9s-5-9-11-9H88c-14 0-23 8-23 23v67c0 27 15 41 41 41"/><linearGradient id="c" x1="85.4" x2="151.4" y1="215.8" y2="194.8" gradientUnits="userSpaceOnUse"><stop offset="0" stop-color="#ee3984"/><stop offset="1" stop-color="#7800da"/></linearGradient><path fill="url(#c)" d="M122 230a40 40 0 0 0 22-20l-11-20c-4 14-13 22-25 22s-20-7-20-23v9c0 19 10 36 34 32"/><linearGradient id="d" x1="175.1" x2="199.2" y1="133.2" y2="218.2" gradientUnits="userSpaceOnUse"><stop offset="0" stop-color="red"/><stop offset="1" stop-color="#ee3984"/></linearGradient><path fill="url(#d)" d="M222 226c-55 8-73-21-73-60 0-27 17-46 42-46 9 0 16 2 23 5l8 2c6 0 10-4 10-10 0-4-2-7-7-10a77 77 0 0 0-34-7c-39 0-65 27-65 67 0 39 25 66 66 66q17 0 30-7"/><linearGradient id="e" x1="125.8" x2="232.2" y1="133.5" y2="133.5" gradientUnits="userSpaceOnUse"><stop offset="0" stop-color="#ffc708"/><stop offset="1" stop-color="#fa3b00"/></linearGradient><path fill="url(#e)" d="M126 167c0-40 26-67 65-67 13 0 25 3 34 7 5 3 7 6 7 10 0 6-4 10-9 10l-9-2a54 54 0 0 0-23-5c-34 0-65 21-65 47"/><linearGradient id="f" x1="259.7" x2="333.2" y1="165" y2="165" gradientUnits="userSpaceOnUse"><stop offset="0" stop-color="red"/><stop offset="1" stop-color="#ee3984"/></linearGradient><path fill="url(#f)" d="M271 108a11 11 0 0 0-3 8c0 8 7 20 25 32l20 14c14 10 20 20 20 34 0 11-4 20-11 26q4-3 4-9c0-8-8-22-27-34l-18-13c-15-11-21-21-21-34 0-8 3-16 7-21z"/><linearGradient id="g" x1="319" x2="254.3" y1="200.4" y2="217.6" gradientUnits="userSpaceOnUse"><stop offset="0" stop-color="#ee3984"/><stop offset="1" stop-color="#7800da"/></linearGradient><path fill="url(#g)" d="M255 217c0 4 2 7 7 10a73 73 0 0 0 29 6c13 0 24-4 31-11q4-3 4-9c0-8-8-22-27-34 9 5 12 10 12 17 0 11-8 18-20 18s-21-6-27-6-9 4-9 9"/><linearGradient id="h" x1="267.7" x2="329.5" y1="124" y2="124" gradientUnits="userSpaceOnUse"><stop offset="0" stop-color="#ffc708"/><stop offset="1" stop-color="#f05731"/></linearGradient><path fill="url(#h)" d="M293 148c-8-6-11-11-11-17 0-8 6-13 15-13 11 0 17 6 24 6 5 0 9-4 9-9 0-4-2-7-7-10-8-4-17-5-27-5a41 41 0 0 0-25 8 11 11 0 0 0-3 8c0 8 7 20 25 32"/><linearGradient id="i" x1="186.7" x2="231.7" y1="203" y2="129.4" gradientUnits="userSpaceOnUse"><stop offset="0" stop-color="#ee3984"/><stop offset="1" stop-color="#7800da"/></linearGradient><path fill="url(#i)" d="M149 166c0 39 18 68 73 60q27-13.5 39-57l5-16a33 33 0 0 1-6-21c0-8 3-16 7-21a88 88 0 0 0-18 35l-5 19c-10 32-26 48-51 48-27 0-44-19-44-47"/></svg>